<svg height='100px' width='100px'  fill="#db222a" xmlns="http://www.w3.org/2000/svg" xmlns:xlink="http://www.w3.org/1999/xlink" version="1.1" x="0px" y="0px" viewBox="0 0 100 100" style="enable-background:new 0 0 100 100;" xml:space="preserve"><path d="M80.9,24.6L79.6,20c-0.2-0.7-0.8-1.1-1.5-1.2l-3.2-0.1c-0.3,0-0.6,0.1-0.9,0.3L57.4,29.9c-0.3,0.2-0.6,0.3-1,0.3L52,29.9  c-0.3,0-0.6,0.1-0.9,0.2L50,30.8c-0.3,0.2-0.7,0.3-1.1,0.2l-16.7-2.9c-0.2,0-0.5-0.1-0.7-0.3L17.1,17.5c-0.3-0.2-0.6-0.3-1-0.3  l-2.1,0c-1.5,0-2.1,1.9-0.9,2.8l16.5,13c0.1,0.1,0.2,0.1,0.3,0.2l18.7,8.8l0.6,0.1l3.5,18.6c0,0.1,0,0.2,0,0.3L53,80.2  c0,0.3,0.1,0.6,0.3,0.8l0.6,0.9c0.8,1.2,2.7,0.8,2.9-0.7L59.3,62c0,0,0-0.1,0-0.1l0.8-18.6c0-0.6,0.4-1.1,0.9-1.4l4.6-2.3  c0.8-0.4,1.1-1.3,0.7-2.1l-1-2.1c-0.2-0.5-0.2-1,0.1-1.5l6.3-10.3l-5.6,10c-0.3,0.5-0.3,1.2,0.1,1.7L75,47.8  c0.2,0.3,0.5,0.5,0.8,0.6v0c1.4,0.5,2.6-1,1.9-2.2l-4.5-8.4c-0.3-0.6-0.2-1.3,0.2-1.8l1.7-1.8c0.1-0.1,0.1-0.1,0.1-0.2l2.6-3.7  l2.8-4.3C81,25.5,81.1,25,80.9,24.6z"></path><path d="M80,16.2l0.1-1.2c0.1-1.6,1-2.9,2.5-3.6l2.7-1.2c1.5-0.7,3.2-0.4,4.5,0.7l0.6,0.5c0.7,0.6,1.2,1.4,1.4,2.4  c0.3,1.4,0.4,3.7-0.4,6.1c-0.7,1.8-2.6,2.9-4.5,2.6l-2-0.3c-1.1-0.2-2.1-0.7-2.7-1.6l-1.2-1.6C80.2,18.1,80,17.2,80,16.2z"></path><path d="M71.2,19.5l-1.7,1.2l-4.6,2.9c-0.6,0.4-1.3,0.3-1.8-0.1l-10.5-9c-0.3-0.2-0.4-0.5-0.5-0.8v0c-0.3-1.3,1.1-2.3,2.3-1.6  l11.7,7.2c0.2,0.1,0.5,0.2,0.8,0.2L71.2,19.5z"></path><path d="M48,83.9l0.2-0.1l1.1-0.6c0.3-0.2,0.8-0.2,1.1-0.1l12.8,5c1,0.4,1.2,1.7,0.4,2.3l0,0"></path><path d="M21.7,13.2l-0.1,0.2l-0.7,1c-0.2,0.3-0.6,0.5,0,0.6L7.1,16.2c-2,0.1-2.8-1-2.4-1.9l0,0"></path></svg>